<?xml version="1.0" standalone="no"?>
<!DOCTYPE svg PUBLIC "-//W3C//DTD SVG 20010904//EN"
 "http://www.w3.org/TR/2001/REC-SVG-20010904/DTD/svg10.dtd">
<svg version="1.0" xmlns="http://www.w3.org/2000/svg"
 width="326.000000pt" height="120.000000pt" viewBox="0 0 326.000000 120.000000"
 preserveAspectRatio="xMidYMid meet">

<g transform="translate(0.000000,120.000000) scale(0.100000,-0.100000)"
fill="#000000" stroke="none">
<path d="M2015 1139 c-172 -17 -378 -56 -735 -139 -266 -62 -374 -80 -496 -81
-104 -1 -113 -2 -69 -11 107 -19 316 4 750 86 390 73 448 80 675 81 164 0 220
-4 279 -18 153 -37 271 -103 356 -200 26 -29 78 -104 116 -167 l69 -113 0 -98
c0 -85 -3 -100 -19 -111 -17 -12 -9 -13 58 -14 42 0 66 2 53 4 -33 5 -44 44
-40 142 3 83 4 87 60 181 65 110 102 157 132 169 15 6 6 9 -35 9 -54 1 -56 0
-52 -22 3 -16 -14 -57 -53 -125 -31 -57 -60 -104 -63 -107 -4 -2 -30 36 -58
84 -29 49 -75 117 -103 152 -182 226 -473 331 -825 298z"/>
<path d="M638 923 c7 -3 16 -2 19 1 4 3 -2 6 -13 5 -11 0 -14 -3 -6 -6z"/>
<path d="M78 850 c22 -9 22 -10 22 -237 0 -125 -4 -233 -8 -239 -4 -6 -14 -14
-22 -17 -8 -3 19 -5 60 -6 52 0 68 3 54 9 -28 11 -32 40 -30 280 l1 195 47 3
c40 3 51 -1 79 -26 27 -24 33 -37 37 -84 5 -64 -6 -91 -51 -118 -18 -11 -25
-20 -17 -20 26 0 79 39 100 72 24 39 26 98 5 137 -22 44 -78 61 -198 60 -71 0
-95 -3 -79 -9z"/>
<path d="M587 783 c-3 -5 -39 -96 -81 -203 -46 -118 -84 -202 -97 -212 -21
-18 -20 -18 26 -18 39 0 45 2 36 14 -9 10 -6 29 11 77 l23 64 79 0 79 0 29
-69 c15 -37 25 -72 22 -77 -3 -5 19 -9 48 -9 50 0 52 1 30 16 -29 20 -40 42
-123 247 -38 94 -71 172 -73 174 -2 3 -6 1 -9 -4z m34 -168 c16 -43 29 -80 29
-82 0 -2 -29 -3 -65 -3 -36 0 -65 3 -65 7 0 21 56 163 64 160 4 -1 21 -38 37
-82z"/>
<path d="M902 773 c11 -14 17 -242 8 -345 l-6 -68 40 0 c31 0 37 3 28 12 -7 7
-12 43 -12 90 l0 78 44 0 c43 0 45 -1 115 -90 145 -181 320 -274 567 -301 193
-21 384 0 844 91 227 44 366 63 480 64 82 0 97 2 70 9 -57 15 -277 10 -395 -8
-60 -9 -218 -39 -350 -66 -378 -78 -530 -92 -696 -65 -199 32 -339 119 -486
300 l-64 79 24 26 c52 56 62 119 27 164 -24 30 -52 37 -167 40 -64 2 -80 0
-71 -10z m179 -32 c28 -28 34 -52 29 -111 -5 -59 -43 -84 -111 -74 l-39 7 0
103 0 104 46 0 c37 0 51 -5 75 -29z"/>
<path d="M2475 613 c-88 -228 -99 -251 -127 -256 -13 -2 6 -4 42 -4 36 -1 57
1 48 4 -23 6 -23 15 4 91 l22 62 77 0 77 0 26 -68 c14 -37 26 -73 26 -80 0 -8
18 -12 58 -11 50 0 53 2 30 10 -31 12 -52 52 -144 282 -32 81 -61 147 -64 147
-3 0 -37 -80 -75 -177z m98 15 c15 -40 27 -79 27 -85 0 -9 -19 -13 -60 -13
-33 0 -60 3 -60 7 0 18 52 163 59 163 3 0 19 -33 34 -72z"/>
<path d="M1358 768 c9 -9 12 -68 12 -205 0 -191 0 -194 -22 -203 -17 -6 -2 -9
52 -8 46 0 65 3 50 7 -24 7 -25 9 -28 111 l-3 105 103 -101 c57 -56 113 -107
125 -113 12 -6 41 -11 65 -10 l43 1 -33 11 c-32 10 -252 210 -252 229 0 11
153 158 184 175 19 11 17 12 -22 13 -28 0 -41 -4 -37 -11 4 -5 -34 -51 -84
-102 l-91 -92 0 97 c0 68 4 98 13 101 6 3 -10 6 -37 6 -39 1 -47 -2 -38 -11z"/>
<path d="M1753 765 c14 -13 42 -97 112 -328 15 -49 31 -87 37 -85 6 2 39 76
73 164 35 87 66 158 71 157 5 -1 34 -72 66 -159 32 -86 60 -160 63 -163 11
-10 24 22 81 194 31 94 65 185 75 203 l18 32 -32 0 c-30 0 -32 -2 -33 -38 0
-40 -80 -302 -92 -302 -4 0 -34 75 -66 165 -32 91 -62 168 -66 170 -4 3 -36
-70 -70 -161 -35 -90 -67 -167 -71 -169 -9 -6 -17 18 -64 189 -27 100 -32 132
-22 138 7 4 -11 8 -41 8 -47 0 -52 -2 -39 -15z"/>
<path d="M198 583 c6 -2 18 -2 25 0 6 3 1 5 -13 5 -14 0 -19 -2 -12 -5z"/>
<path d="M80 145 c0 -42 4 -64 10 -60 6 3 10 30 10 60 0 30 -4 57 -10 60 -6 4
-10 -18 -10 -60z"/>
<path d="M119 197 c7 -9 11 -27 8 -39 -6 -20 -5 -20 11 -4 18 18 9 45 -19 55
-12 4 -12 2 0 -12z"/>
<path d="M230 144 c0 -41 4 -63 10 -59 6 3 10 33 10 66 0 33 -4 59 -10 59 -6
0 -10 -29 -10 -66z"/>
<path d="M275 194 c9 -9 14 -23 11 -31 -3 -8 -1 -11 4 -8 16 10 12 42 -6 49
-25 9 -27 7 -9 -10z"/>
<path d="M469 194 c20 -15 23 -23 18 -63 -5 -41 -4 -44 9 -26 21 29 17 71 -8
89 -12 9 -27 16 -32 16 -6 0 0 -7 13 -16z"/>
<path d="M598 204 c-5 -4 -8 -39 -8 -78 0 -49 3 -67 10 -60 6 6 10 40 8 78 -2
37 -6 64 -10 60z"/>
<path d="M710 155 c0 -30 -1 -58 -2 -62 -2 -5 13 -9 32 -10 30 -2 31 -1 10 6
-23 6 -25 12 -25 64 0 31 -3 57 -7 57 -5 0 -8 -25 -8 -55z"/>
<path d="M910 206 c0 -2 9 -6 20 -9 11 -3 18 -1 14 4 -5 9 -34 13 -34 5z"/>
<path d="M1050 144 c0 -41 4 -63 10 -59 6 3 10 33 10 66 0 33 -4 59 -10 59 -6
0 -10 -29 -10 -66z"/>
<path d="M1190 195 c-10 -12 -9 -20 6 -41 11 -15 24 -35 30 -46 10 -16 12 -17
17 -4 4 10 -5 29 -23 49 -22 26 -26 37 -18 45 7 7 9 12 6 12 -3 0 -11 -7 -18
-15z"/>
<path d="M390 181 c-5 -11 -10 -29 -10 -40 0 -26 34 -61 58 -61 15 1 14 2 -3
12 -11 6 -23 16 -27 22 -12 17 -9 61 4 74 9 9 9 12 0 12 -6 0 -16 -9 -22 -19z"/>
<path d="M852 188 c-21 -21 -15 -75 10 -92 24 -17 73 -21 82 -7 3 4 -5 6 -18
4 -13 -3 -34 0 -46 7 -19 10 -22 18 -17 56 5 49 5 48 -11 32z"/>
<path d="M287 110 c14 -16 31 -30 37 -30 5 0 -3 14 -19 30 -16 17 -32 30 -37
30 -4 0 4 -13 19 -30z"/>
<path d="M1180 90 c0 -5 5 -10 11 -10 5 0 7 5 4 10 -3 6 -8 10 -11 10 -2 0 -4
-4 -4 -10z"/>
</g>
</svg>
